<svg width="32" height="32" viewBox="0 0 32 32" fill="none" xmlns="http://www.w3.org/2000/svg">
<path fill-rule="evenodd" clip-rule="evenodd" d="M8.36798 11.536C8.59719 11.3154 8.90458 11.1949 9.2226 11.2009C9.54062 11.2069 9.84325 11.3389 10.064 11.568L16 17.8688L21.936 11.568C22.0439 11.449 22.1746 11.3529 22.3203 11.2854C22.466 11.2179 22.6238 11.1803 22.7843 11.1749C22.9448 11.1695 23.1047 11.1963 23.2547 11.2538C23.4046 11.3114 23.5415 11.3984 23.6572 11.5098C23.7728 11.6212 23.865 11.7547 23.9281 11.9024C23.9913 12.05 24.0242 12.2089 24.0248 12.3694C24.0254 12.53 23.9938 12.6891 23.9318 12.8373C23.8699 12.9854 23.7788 13.1197 23.664 13.232L16.864 20.432C16.752 20.5481 16.6178 20.6405 16.4694 20.7036C16.3209 20.7667 16.1613 20.7992 16 20.7992C15.8387 20.7992 15.679 20.7667 15.5306 20.7036C15.3821 20.6405 15.2479 20.5481 15.136 20.432L8.33598 13.232C8.11545 13.0028 7.99495 12.6954 8.00095 12.3773C8.00695 12.0593 8.13896 11.7567 8.36798 11.536Z" fill="#1E293B"/>
</svg>
