<svg width="32" height="32" viewBox="0 0 32 32" fill="none" xmlns="http://www.w3.org/2000/svg">
<path d="M16 0C24.8366 0 32 7.16344 32 16C32 24.8366 24.8366 32 16 32C7.16344 32 0 24.8366 0 16C0 7.16344 7.16344 0 16 0Z" fill="#005EA2"/>
<path d="M16 0C24.8366 0 32 7.16344 32 16C32 24.8366 24.8366 32 16 32C7.16344 32 0 24.8366 0 16C0 7.16344 7.16344 0 16 0Z" stroke="#E5E7EB"/>
<path d="M22 24H10V8H22V24Z" stroke="#E5E7EB"/>
<path d="M22 21.5H10V9.5H22V21.5Z" stroke="#E5E7EB"/>
<path d="M13.4945 11.0188L13.2508 11.75H11.5C10.6727 11.75 10 12.4227 10 13.25V19.25C10 20.0773 10.6727 20.75 11.5 20.75H20.5C21.3273 20.75 22 20.0773 22 19.25V13.25C22 12.4227 21.3273 11.75 20.5 11.75H18.7492L18.5055 11.0188C18.3531 10.5594 17.9242 10.25 17.4391 10.25H14.5609C14.0758 10.25 13.6469 10.5594 13.4945 11.0188ZM16 14C16.5967 14 17.169 14.2371 17.591 14.659C18.0129 15.081 18.25 15.6533 18.25 16.25C18.25 16.8467 18.0129 17.419 17.591 17.841C17.169 18.2629 16.5967 18.5 16 18.5C15.4033 18.5 14.831 18.2629 14.409 17.841C13.9871 17.419 13.75 16.8467 13.75 16.25C13.75 15.6533 13.9871 15.081 14.409 14.659C14.831 14.2371 15.4033 14 16 14Z" fill="white"/>
</svg>
